<?xml version="1.0" encoding="UTF-8" standalone="no"?>
<!-- Created with Inkscape (http://www.inkscape.org/) -->

<svg
   width="210mm"
   height="297mm"
   viewBox="0 0 210 297"
   version="1.1"
   id="svg135"
   inkscape:version="1.2.2 (732a01da63, 2022-12-09)"
   sodipodi:docname="LOGO3.svg"
   xmlns:inkscape="http://www.inkscape.org/namespaces/inkscape"
   xmlns:sodipodi="http://sodipodi.sourceforge.net/DTD/sodipodi-0.dtd"
   xmlns="http://www.w3.org/2000/svg"
   xmlns:svg="http://www.w3.org/2000/svg">
  <sodipodi:namedview
     id="namedview137"
     pagecolor="#ffffff"
     bordercolor="#000000"
     borderopacity="0.25"
     inkscape:showpageshadow="2"
     inkscape:pageopacity="0.0"
     inkscape:pagecheckerboard="0"
     inkscape:deskcolor="#d1d1d1"
     inkscape:document-units="mm"
     showgrid="false"
     inkscape:zoom="2.8284271"
     inkscape:cx="187.20652"
     inkscape:cy="439.82042"
     inkscape:window-width="1920"
     inkscape:window-height="974"
     inkscape:window-x="-11"
     inkscape:window-y="-11"
     inkscape:window-maximized="1"
     inkscape:current-layer="layer1" />
  <defs
     id="defs132" />
  <g
     inkscape:label="Capa 1"
     inkscape:groupmode="layer"
     id="layer1"
     style="display:inline">
    <g
       aria-label="&amp;"
       id="text871"
       style="font-weight:bold;font-size:19.05px;font-family:'Noto Serif Armenian';-inkscape-font-specification:'Noto Serif Armenian Bold';fill:#2b0000;stroke:#000000;stroke-width:0;stroke-linecap:square;stroke-linejoin:bevel;paint-order:fill markers stroke"
       transform="matrix(1.2522378,0,0,1.8601384,-68.715655,-56.690095)">
      <path
         d="m 88.212787,98.169878 q -2.34315,0 -3.60045,-1.0668 -1.23825,-1.08585 -1.23825,-2.99085 0,-1.12395 0.43815,-1.80975 0.4572,-0.70485 1.20015,-1.143 0.74295,-0.4572 1.61925,-0.8001 -0.762,-0.89535 -1.1049,-1.65735 -0.3429,-0.762 -0.3429,-1.7145 0,-1.2573 0.9525,-2.0193 0.97155,-0.78105 2.87655,-0.78105 1.8288,0 2.72415,0.8001 0.914399,0.8001 0.914399,1.905 0,1.16205 -0.70485,1.905 -0.704849,0.74295 -2.190749,1.42875 l 2.838449,2.9718 q 0.1143,-0.66675 0.1524,-1.31445 0.0381,-0.6477 0.0381,-1.1811 v -0.8382 h 4.17195 v 1.00965 h -0.3048 q -0.6477,0 -1.1811,0.20955 -0.5334,0.20955 -0.78105,1.08585 -0.13335,0.5334 -0.3429,1.143 -0.20955,0.59055 -0.4953,1.20015 l 1.905,1.9812 q 0.2667,0.28575 0.6477,0.381 0.40005,0.09525 0.9144,0.09525 h 0.17145 v 1.00965 h -3.7719 l -1.31445,-1.39065 q -0.704849,0.70485 -1.733549,1.143 -1.0287,0.43815 -2.45745,0.43815 z m 0.74295,-8.8011 q 0.8001,-0.4572 1.08585,-1.00965 0.3048,-0.5715 0.3048,-1.4478 0,-0.66675 -0.2667,-1.12395 -0.2667,-0.4572 -1.0668,-0.4572 -0.6477,0 -0.9525,0.4572 -0.28575,0.4572 -0.28575,1.143 0,0.6477 0.28575,1.2192 0.3048,0.55245 0.89535,1.2192 z m -0.2667,7.52475 q 1.00965,0 1.7145,-0.32385 0.70485,-0.3429 1.16205,-0.89535 l -4.0767,-4.3434 q -0.8001,0.5715 -1.0668,1.2954 -0.24765,0.70485 -0.24765,1.58115 0,1.12395 0.6858,1.905 0.6858,0.78105 1.8288,0.78105 z"
         id="path873" />
    </g>
    <g
       aria-label="C  &amp;  C"
       id="text467"
       style="font-weight:bold;font-size:19.05px;line-height:0;font-family:'Century Gothic';-inkscape-font-specification:'Century Gothic Bold';fill:#ff6600;stroke:#000000;stroke-width:0;stroke-linecap:square;stroke-linejoin:bevel;paint-order:fill markers stroke"
       transform="matrix(1.3404822,0,0,1.6524801,-69.378637,-73.369582)">
      <path
         d="m 90.135545,98.997125 -3.077537,1.720255 q -3.140345,-1.941037 -7.065775,-1.941037 -3.313064,0 -5.589814,1.324687 -2.261048,1.3247 -2.261048,3.26574 0,1.35229 1.004909,2.40101 1.004911,1.04871 2.842014,1.64666 1.8371,0.59795 4.082446,0.59795 1.915611,0 3.501484,-0.41396 1.585875,-0.42317 3.485784,-1.52709 l 2.983326,1.82146 q -2.55938,1.46268 -4.83613,2.03303 -2.27675,0.56116 -5.197271,0.56116 -5.38569,0 -8.824367,-1.99624 -3.422975,-2.00544 -3.422975,-5.13318 0,-2.02384 1.55447,-3.596909 1.570171,-1.573071 4.47499,-2.529793 2.92052,-0.956722 6.280689,-0.956722 2.857714,0 5.495604,0.708342 2.653592,0.708342 4.569201,2.014637 z"
         id="path527"
         style="display:inline;fill:#ff6600;stroke-width:0" />
      <path
         d="m 90.422495,117.78722 -2.993137,1.81561 q -3.230628,-1.84096 -7.153115,-1.71769 -3.310577,0.10404 -5.522402,1.49923 -2.196134,1.39471 -2.103502,3.33429 0.06454,1.35128 1.118739,2.36766 1.054205,1.01636 2.918471,1.55617 1.864258,0.53981 4.107915,0.4693 1.914174,-0.0601 3.47911,-0.52361 1.564487,-0.47265 3.41029,-1.63541 l 3.068019,1.72641 q -2.487658,1.54196 -4.735483,2.18338 -2.248263,0.63224 -5.166603,0.72395 -5.381648,0.16913 -8.913014,-1.71763 -3.516115,-1.89644 -3.665379,-5.02184 -0.09658,-2.02232 1.381649,-3.64303 1.493923,-1.6212 4.350907,-2.66842 2.87267,-1.04772 6.230321,-1.15324 2.855578,-0.0897 5.525295,0.53523 2.685405,0.62448 4.661919,1.86964 z"
         id="path527-9"
         style="font-weight:bold;font-size:19.05px;line-height:0;font-family:'Century Gothic';-inkscape-font-specification:'Century Gothic Bold';fill:#800080;stroke:#000000;stroke-width:0;stroke-linecap:square;stroke-linejoin:bevel;paint-order:fill markers stroke" />
    </g>
    <g
       aria-label="&amp;"
       id="g3862"
       style="font-weight:bold;font-size:19.05px;font-family:'Noto Serif Armenian';-inkscape-font-specification:'Noto Serif Armenian Bold';fill:#2b0000;stroke:#000000;stroke-width:0;stroke-linecap:square;stroke-linejoin:bevel;paint-order:fill markers stroke"
       transform="matrix(1.2522378,0,0,1.8601384,-51.039004,-56.690094)">
      <g
         id="path3860">
        <path
           style="color:#000000;-inkscape-font-specification:'Noto Serif Armenian Bold';fill:#000000;stroke:none;stroke-linecap:butt;stroke-linejoin:miter;-inkscape-stroke:none"
           d="m 74.096737,98.169877 c -1.562098,0 -2.762251,-0.355601 -3.60045,-1.0668 -0.825499,-0.723899 -1.23825,-1.720851 -1.23825,-2.99085 0,-0.749299 0.14605,-1.35255 0.43815,-1.80975 0.3048,-0.4699 0.70485,-0.8509 1.20015,-1.143 0.4953,-0.3048 1.035051,-0.5715 1.61925,-0.8001 -0.507999,-0.596899 -0.706228,-0.809598 -0.934828,-1.317597 -0.2286,-0.507999 -0.177837,-0.65263 1.64082,-2.054258 0.819106,-0.63128 -1.836291,-1.511296 -1.201292,-2.019295 0.647699,-0.520699 1.606551,-0.78105 2.87655,-0.78105 1.219199,0 2.127251,0.266701 2.72415,0.8001 0.609599,0.533399 0.914399,1.168401 0.914399,1.905 0,0.774699 -0.23495,1.4097 -0.70485,1.905 -0.469899,0.4953 -1.20015,0.97155 -2.190749,1.42875 l 2.838449,2.9718 c 0.0762,-0.4445 0.127,-0.88265 0.1524,-1.31445 0.0254,-0.4318 0.0381,-0.8255 0.0381,-1.1811 v -0.8382 h 4.17195 v 1.00965 h -0.3048 c -0.4318,0 -0.8255,0.06985 -1.1811,0.20955 -0.3556,0.1397 -0.61595,0.501651 -0.78105,1.08585 -0.0889,0.3556 -0.2032,0.7366 -0.3429,1.143 -0.1397,0.3937 -0.3048,0.79375 -0.4953,1.20015 v 0 c 0.1778,0.1905 2.2987,2.2987 2.5527,2.3622 0.2667,0.0635 0.5715,0.09525 0.9144,0.09525 h 0.17145 v 1.00965 l -3.63855,-3.4671 -3.182511,-0.612195 c -0.469899,0.4699 0.686961,3.539545 0.0012,3.831645 -0.685799,0.2921 -1.504951,0.43815 -2.45745,0.43815 z m 0.74295,-8.8011 c 0.533399,-0.3048 0.89535,-0.64135 1.08585,-1.00965 0.2032,-0.381 0.3048,-0.863601 0.3048,-1.4478 0,-0.4445 -0.0889,-0.81915 -0.2667,-1.12395 -0.1778,-0.3048 -0.533401,-0.4572 -1.0668,-0.4572 -0.4318,0 -0.7493,0.1524 -0.9525,0.4572 -0.1905,0.3048 -0.797201,0.7457 -0.722758,1.200145 0.144666,0.88313 -2.480802,1.017416 -1.64082,2.054258 0.2032,0.3683 2.865228,-0.117503 3.258928,0.326997 z m -0.2667,7.52475 c 0.673099,0 1.2446,-0.10795 1.7145,-0.32385 0.4699,-0.2286 -0.03926,-2.301295 0.265538,-2.669595 l -3.180188,-2.569155 c -0.533399,0.381 -0.889,0.8128 -1.0668,1.2954 -0.1651,0.4699 -0.24765,0.996951 -0.24765,1.58115 0,0.749299 0.2286,1.384301 0.6858,1.905 0.4572,0.520699 1.066801,0.78105 1.8288,0.78105 z"
           id="path3917"
           sodipodi:nodetypes="ccscccsscscssccsscccsscccccsccccsscsssscsccsccccsssc" />
      </g>
    </g>
    <rect
       style="fill:#ff6600;stroke:#000000;stroke-width:0;stroke-linecap:square;stroke-linejoin:bevel;paint-order:fill markers stroke"
       id="rect4122"
       width="1.3132656"
       height="4.0584655"
       x="37.954765"
       y="105.11874" />
    <rect
       style="fill:#ff6600;stroke:#000000;stroke-width:0;stroke-linecap:square;stroke-linejoin:bevel;paint-order:fill markers stroke"
       id="rect4124"
       width="4.0808568"
       height="2.3899715"
       x="38.611397"
       y="105.11874" />
    <rect
       style="fill:#ff6600;stroke:#000000;stroke-width:0;stroke-linecap:square;stroke-linejoin:bevel;paint-order:fill markers stroke"
       id="rect4126"
       width="3.470633"
       height="1.7053123"
       x="35.797398"
       y="105.44266" />
    <path
       style="fill:#ff6600;stroke:#000000;stroke-width:0;stroke-linecap:square;stroke-linejoin:bevel;paint-order:fill markers stroke"
       id="path4182"
       sodipodi:type="arc"
       sodipodi:cx="40.769367"
       sodipodi:cy="105.53569"
       sodipodi:rx="0.48682812"
       sodipodi:ry="0.41695449"
       sodipodi:start="0"
       sodipodi:end="6.2771825"
       sodipodi:open="true"
       sodipodi:arc-type="arc"
       d="m 41.256195,105.53569 a 0.48682812,0.41695449 0 0 1 -0.486097,0.41695 0.48682812,0.41695449 0 0 1 -0.487557,-0.4157 0.48682812,0.41695449 0 0 1 0.484634,-0.4182 0.48682812,0.41695449 0 0 1 0.489012,0.41445" />
    <path
       style="fill:#ff6600;stroke:#000000;stroke-width:0;stroke-linecap:square;stroke-linejoin:bevel;paint-order:fill markers stroke"
       d="m 40.651824,105.11873 c 0.01646,-0.0216 0.02978,-0.046 0.04933,-0.0648 0.0043,-0.004 0.01214,0.001 0.01794,0 0.01101,-0.003 0.01006,-0.012 0.01794,-0.0179 0.0051,-0.004 0.0123,-0.003 0.01794,-0.006 0.0053,-0.003 -0.01196,0 -0.01794,0 -0.01196,0 -0.02392,0 -0.03588,0 -0.02209,0 -0.03938,7.9e-4 -0.0598,0.006 -0.0051,0.001 -0.01871,-0.003 -0.02392,0 -0.0051,0.003 -0.0069,0.009 -0.01196,0.012 -0.0163,0.008 -0.04186,0.006 -0.04186,0.0299 0,0.002 0.004,2.6e-4 0.006,0 0.02,-0.004 0.03965,-0.009 0.0598,-0.012 0.0099,-10e-4 0.02,0.001 0.0299,0 0.01662,0.0116 0.01527,-0.01 0.02392,-0.012 0.0159,-0.004 0.03679,-0.006 0.05382,-0.006 0.006,0 -0.01196,0 -0.01794,0 -0.01595,0 -0.03189,0 -0.04784,0 -0.03454,0 -0.01159,-0.003 -0.01942,0.0708"
       id="path4252" />
    <path
       style="fill:#ff6600;stroke:#000000;stroke-width:0;stroke-linecap:square;stroke-linejoin:bevel;paint-order:fill markers stroke"
       d="m 40.636944,104.91322 0.17101,-0.0286 -0.156101,0.2341 -0.08824,-0.0408 z"
       id="path4310" />
    <path
       style="fill:#ff6600;stroke:#000000;stroke-width:0;stroke-linecap:square;stroke-linejoin:bevel;paint-order:fill markers stroke"
       d="m 40.785142,105.21468 -0.20342,-0.0156 0.01101,-0.25712 0.232577,-0.0381 z"
       id="path4312" />
    <path
       style="fill:#800080;stroke:#000000;stroke-width:0;stroke-linecap:square;stroke-linejoin:bevel;paint-order:fill markers stroke"
       d="m 44.612549,122.51489 0.460306,0.19504 -0.130334,-4.69889 -0.473241,-0.12024 z"
       id="path4314" />
    <path
       style="fill:#ffffff;stroke:#000000;stroke-width:0;stroke-linecap:square;stroke-linejoin:bevel;paint-order:fill markers stroke"
       d="m 48.808848,119.11582 0.27486,0.41484 0.07309,0.0465 -0.241877,-0.51279 z"
       id="path4933" />
    <path
       style="fill:#ffffff;stroke:#000000;stroke-width:0;stroke-linecap:square;stroke-linejoin:bevel;paint-order:fill markers stroke"
       d="m 49.083708,119.53066 0.166079,0.0944 0.04808,-0.20401 -0.203703,0.0233 z"
       id="path4935" />
    <path
       style="fill:#ffffff;stroke:#000000;stroke-width:0;stroke-linecap:square;stroke-linejoin:bevel;paint-order:fill markers stroke"
       d="m 49.104928,119.08778 -0.29608,0.028 0.27486,0.41484 0.03654,0.0233 -0.01627,-0.4728 z"
       id="path4937" />
    <path
       style="fill:#ffffff;stroke:#000000;stroke-width:0;stroke-linecap:square;stroke-linejoin:bevel;paint-order:fill markers stroke"
       d="m 48.808848,119.11578 0.27486,0.41488 0.03654,0.0233 -0.03384,-0.18033 -0.224526,-0.28349 -0.05304,0.0257 0.273426,0.25265 -0.22039,-0.27833 z"
       id="path4939" />
    <path
       style="fill:#ffffff;stroke:#000000;stroke-width:0;stroke-linecap:square;stroke-linejoin:bevel;paint-order:fill markers stroke"
       d="m 49.083708,119.53066 -0.186325,-0.27806 0.0522,-0.0517 0.167706,0.26716 z"
       id="path4941" />
    <path
       style="fill:#ffffff;stroke:#000000;stroke-width:0;stroke-linecap:square;stroke-linejoin:bevel;paint-order:fill markers stroke"
       d="m 49.156797,119.57716 -0.07309,-0.0465 -0.126076,-0.21837 0.0057,0.0421 0.120422,0.17625 0.112308,-0.098 z"
       id="path4943" />
    <path
       style="fill:#ffffff;stroke:#000000;stroke-width:0;stroke-linecap:square;stroke-linejoin:bevel;paint-order:fill markers stroke"
       d="m 48.897383,119.2526 -0.08854,-0.13682 0.115195,-0.0321 0.05921,0.12553 z"
       id="path4945" />
    <path
       style="fill:#ffffff;stroke:#000000;stroke-width:0;stroke-linecap:square;stroke-linejoin:bevel;paint-order:fill markers stroke"
       d="m 49.109476,119.24089 -0.02577,0.28977 0.08094,0.0176 -0.02138,-0.28424 z"
       id="path4947" />
    <path
       style="fill:#ffffff;stroke:#000000;stroke-width:0;stroke-linecap:square;stroke-linejoin:bevel;paint-order:fill markers stroke"
       d="m 49.234203,119.55963 -0.07741,0.0175 -0.07791,-0.0395 0.0053,-0.11436 0.146894,0.0547 z"
       id="path4949" />
    <path
       style="fill:#800080;stroke:#000000;stroke-width:0;stroke-linecap:square;stroke-linejoin:bevel;paint-order:fill markers stroke"
       d="m 49.078882,119.53763 0.07791,0.0395 0.138391,0.16233 -0.205672,0.002 z"
       id="path4951" />
    <path
       style="fill:#800080;stroke:#000000;stroke-width:0;stroke-linecap:square;stroke-linejoin:bevel;paint-order:fill markers stroke"
       d="m 49.172354,119.74065 0.0957,-0.033 0.446741,0.33258 -0.337966,0.0796 -0.205718,-0.37913 z"
       id="path4953" />
    <path
       style="fill:#800080;stroke:#000000;stroke-width:0;stroke-linecap:square;stroke-linejoin:bevel;paint-order:fill markers stroke"
       d="m 49.167023,120.31307 0.320394,-0.34107 0.558107,0.3266 0.729671,1.11208 -0.568442,0.0165 z"
       id="path4955" />
    <path
       style="display:inline;fill:#800080;stroke:#000000;stroke-width:0;stroke-linecap:square;stroke-linejoin:bevel;paint-order:fill markers stroke"
       d="m 50.18815,121.33626 0.516763,0.0765 0.207296,0.54586 -0.136064,0.10175 z"
       id="path4957" />
    <path
       style="display:inline;fill:#ffffff;stroke:#000000;stroke-width:0;stroke-linecap:square;stroke-linejoin:bevel;paint-order:fill markers stroke"
       d="m 50.776145,122.06037 0.136064,-0.10175 1.163722,1.57505 -0.292383,-0.12995 z"
       id="path4959" />
    <path
       style="display:inline;fill:#ffffff;stroke:#000000;stroke-width:0;stroke-linecap:square;stroke-linejoin:bevel;paint-order:fill markers stroke"
       d="m 52.643814,123.12633 -0.860266,0.27739 0.221888,0.10612 z"
       id="path4961" />
    <g
       id="g4974">
      <g
         id="g4966">
        <g
           id="g4969">
          <path
             style="fill:#ffffff;stroke:#000000;stroke-width:0;stroke-linecap:square;stroke-linejoin:bevel;paint-order:fill markers stroke"
             d="m 51.783548,123.40372 0.07878,0.0434 0.143103,0.0627 0.02963,-0.09 -0.04158,-0.0838 z"
             id="path4963" />
        </g>
      </g>
    </g>
  </g>
  <g
     inkscape:groupmode="layer"
     id="layer2"
     inkscape:label="Capa 2" />
</svg>
