<?xml version="1.0" encoding="UTF-8" standalone="no"?>
<!-- Created with Inkscape (http://www.inkscape.org/) -->

<svg
   width="210mm"
   height="297mm"
   viewBox="0 0 210 297"
   version="1.1"
   id="svg135"
   inkscape:version="1.2.2 (732a01da63, 2022-12-09)"
   sodipodi:docname="LOGO2.svg"
   xmlns:inkscape="http://www.inkscape.org/namespaces/inkscape"
   xmlns:sodipodi="http://sodipodi.sourceforge.net/DTD/sodipodi-0.dtd"
   xmlns="http://www.w3.org/2000/svg"
   xmlns:svg="http://www.w3.org/2000/svg">
  <sodipodi:namedview
     id="namedview137"
     pagecolor="#ffffff"
     bordercolor="#000000"
     borderopacity="0.25"
     inkscape:showpageshadow="2"
     inkscape:pageopacity="0.0"
     inkscape:pagecheckerboard="0"
     inkscape:deskcolor="#d1d1d1"
     inkscape:document-units="mm"
     showgrid="false"
     inkscape:zoom="2.7652076"
     inkscape:cx="187.50852"
     inkscape:cy="424.92288"
     inkscape:window-width="1920"
     inkscape:window-height="974"
     inkscape:window-x="-11"
     inkscape:window-y="-11"
     inkscape:window-maximized="1"
     inkscape:current-layer="layer1" />
  <defs
     id="defs132" />
  <g
     inkscape:label="Capa 1"
     inkscape:groupmode="layer"
     id="layer1"
     style="display:inline">
    <text
       xml:space="preserve"
       style="font-style:normal;font-variant:normal;font-weight:bold;font-stretch:normal;font-size:19.05px;line-height:0;font-family:'Century Gothic';-inkscape-font-specification:'Century Gothic Bold';fill:#000080;stroke:#000000;stroke-width:0;stroke-linecap:square;stroke-linejoin:bevel;paint-order:fill markers stroke"
       x="55.304768"
       y="99.893036"
       id="text360"><tspan
         sodipodi:role="line"
         id="tspan358"
         style="font-style:normal;font-variant:normal;font-weight:bold;font-stretch:normal;font-family:'Century Gothic';-inkscape-font-specification:'Century Gothic Bold';fill:#000080;stroke-width:0"
         x="55.304768"
         y="99.893036" /></text>
    <circle
       id="path463"
       style="fill:#000080;stroke:#000000;stroke-width:0.264583"
       cx="73.101807"
       cy="110.22681"
       r="0" />
    <g
       aria-label="C  &amp;  C"
       id="text467"
       style="font-weight:bold;font-size:19.05px;line-height:0;font-family:'Century Gothic';-inkscape-font-specification:'Century Gothic Bold';fill:#ff6600;stroke:#000000;stroke-width:0;stroke-linecap:square;stroke-linejoin:bevel;paint-order:fill markers stroke"
       transform="matrix(1.3404822,0,0,1.6524801,-69.378637,-73.369582)">
      <path
         d="m 90.220255,99.463844 -3.077537,1.720256 q -3.140345,-1.941038 -7.065775,-1.941038 -3.313064,0 -5.589814,1.324688 -2.261048,1.3247 -2.261048,3.26574 0,1.35229 1.004909,2.40101 1.004911,1.04871 2.842014,1.64666 1.8371,0.59795 4.082446,0.59795 1.915611,0 3.501484,-0.41396 1.585875,-0.42317 3.485784,-1.52709 l 2.983326,1.82146 q -2.55938,1.46268 -4.83613,2.03303 -2.27675,0.56116 -5.197271,0.56116 -5.38569,0 -8.824367,-1.99624 -3.422975,-2.00544 -3.422975,-5.13318 0,-2.02384 1.55447,-3.59691 1.570171,-1.573071 4.47499,-2.529793 2.92052,-0.956722 6.280689,-0.956722 2.857714,0 5.495604,0.708342 2.653592,0.708342 4.569201,2.014637 z"
         id="path527"
         style="display:inline;fill:#ff6600;stroke-width:0" />
      <path
         d="m 124.23779,122.92272 1.76663,1.78942 -0.99888,0.73012 -0.98573,0.71953 3.10177,2.64534 h -4.45551 l -0.77521,-1.40555 c -2.0328,0.96644 -4.42068,1.79707 -6.16433,1.79707 -1.48078,0 -2.68118,-0.34919 -3.60119,-1.04756 -0.91125,-0.69837 -1.36688,-1.59425 -1.36688,-2.68766 0,-0.82535 0.25848,-1.60485 0.77544,-2.33849 0.51696,-0.73364 1.40193,-1.49197 2.65491,-2.275 -1.23545,-1.34735 -1.85318,-2.53952 -1.85318,-3.5765 0,-0.76891 0.41181,-1.52725 1.23545,-2.275 0.82362,-0.74775 2.39881,-2.03361 3.8398,-1.70065 1.47325,0.34042 2.31991,0.94938 3.12602,1.69007 0.81487,0.7407 1.22231,1.48845 1.22231,2.24325 0,0.59256 -0.18839,1.16043 -0.56517,1.7036 -0.36799,0.54318 -1.97178,1.11575 -3.31238,2.18094 1.5684,1.48845 4.00802,3.16882 4.46366,3.53564 0.28037,-0.1693 0.74464,-0.9385 1.89247,-1.72857 z m -6.74227,-2.82039 c 0.97258,-0.67015 2.95491,-1.28304 2.60095,-2.87782 -0.20503,-0.92374 -0.47774,-1.36009 -0.82824,-1.72725 -0.18525,-0.19405 -1.23677,-0.95291 -1.58123,-1.03564 -0.91431,-0.21958 -0.97559,0.11427 -2.13914,0.71997 -2.71258,1.88919 -1.73483,2.83081 -0.69339,3.82059 0.77294,0.73459 1.29564,1.62568 2.64105,1.10015 z m 3.0383,5.7676 c -0.67468,-0.53613 -3.12577,-2.85169 -4.56516,-4.17199 -2.62605,0.52026 -3.38589,2.95777 -3.38589,3.60676 0,0.30333 0.46076,1.56632 0.81124,1.82028 0.35923,0.25395 1.4451,1.36876 2.88839,0.67044 0.0696,-0.0337 3.218,-1.14699 4.25142,-1.92549 z"
         id="path529"
         style="fill:#2b0000;stroke-width:0"
         inkscape:transform-center-x="4.4014174"
         inkscape:transform-center-y="0.38273196"
         sodipodi:nodetypes="cccccccscsscssscscccccssscscccscsc" />
      <path
         d="m 134.49911,98.706149 -1.54456,1.908661 q -2.14475,-1.7614 -4.45241,-1.528574 -1.94766,0.196505 -3.0823,1.660754 -1.12541,1.46332 -0.82679,3.41099 0.20804,1.3569 0.96015,2.34959 0.7521,0.99269 1.92409,1.48371 1.17197,0.49104 2.49195,0.35786 1.12614,-0.11362 1.99474,-0.62306 0.86719,-0.51867 1.81426,-1.73904 l 2.03406,1.65072 q -1.27957,1.61947 -2.53026,2.32681 -1.25212,0.69811 -2.96901,0.87133 -3.16611,0.31944 -5.49473,-1.47965 -2.32082,-1.80926 -2.80201,-4.94767 -0.31137,-2.03074 0.36046,-3.70138 0.68105,-1.671569 2.24153,-2.803847 1.56971,-1.133208 3.54506,-1.332507 1.67998,-0.169497 3.33971,0.384802 1.66894,0.553369 2.99606,1.750501 z"
         id="path531"
         style="fill:#ff6600" />
      <path
         d="m 90.422495,117.78722 -2.993137,1.81561 q -3.230628,-1.84096 -7.153115,-1.71769 -3.310577,0.10404 -5.522402,1.49923 -2.196134,1.39471 -2.103502,3.33429 0.06454,1.35128 1.118739,2.36766 1.054205,1.01636 2.918471,1.55617 1.864258,0.53981 4.107915,0.4693 1.914174,-0.0601 3.47911,-0.52361 1.564487,-0.47265 3.41029,-1.63541 l 3.068019,1.72641 q -2.487658,1.54196 -4.735483,2.18338 -2.248263,0.63224 -5.166603,0.72395 -5.381648,0.16913 -8.913014,-1.71763 -3.516115,-1.89644 -3.665379,-5.02184 -0.09658,-2.02232 1.381649,-3.64303 1.493923,-1.6212 4.350907,-2.66842 2.87267,-1.04772 6.230321,-1.15324 2.855578,-0.0897 5.525295,0.53523 2.685405,0.62448 4.661919,1.86964 z"
         id="path527-9"
         style="font-weight:bold;font-size:19.05px;line-height:0;font-family:'Century Gothic';-inkscape-font-specification:'Century Gothic Bold';fill:#ff6600;stroke:#000000;stroke-width:0;stroke-linecap:square;stroke-linejoin:bevel;paint-order:fill markers stroke" />
    </g>
    <text
       xml:space="preserve"
       style="font-style:normal;font-variant:normal;font-weight:bold;font-stretch:normal;font-size:19.05px;font-family:'Californian FB';-inkscape-font-specification:'Californian FB Bold';fill:#000080;stroke:#000000;stroke-width:0;stroke-linecap:square;stroke-linejoin:bevel;paint-order:fill markers stroke"
       x="134.33891"
       y="143.52448"
       id="text521"><tspan
         sodipodi:role="line"
         id="tspan519"
         style="font-style:normal;font-variant:normal;font-weight:bold;font-stretch:normal;font-family:'Californian FB';-inkscape-font-specification:'Californian FB Bold';stroke-width:0"
         x="134.33891"
         y="143.52448">C</tspan></text>
    <g
       aria-label="&amp;"
       id="text871"
       style="font-weight:bold;font-size:19.05px;font-family:'Noto Serif Armenian';-inkscape-font-specification:'Noto Serif Armenian Bold';fill:#2b0000;stroke:#000000;stroke-width:0;stroke-linecap:square;stroke-linejoin:bevel;paint-order:fill markers stroke"
       transform="matrix(1.2522378,0,0,1.8601384,-68.715655,-56.690095)">
      <path
         d="m 88.212787,98.169878 q -2.34315,0 -3.60045,-1.0668 -1.23825,-1.08585 -1.23825,-2.99085 0,-1.12395 0.43815,-1.80975 0.4572,-0.70485 1.20015,-1.143 0.74295,-0.4572 1.61925,-0.8001 -0.762,-0.89535 -1.1049,-1.65735 -0.3429,-0.762 -0.3429,-1.7145 0,-1.2573 0.9525,-2.0193 0.97155,-0.78105 2.87655,-0.78105 1.8288,0 2.72415,0.8001 0.914399,0.8001 0.914399,1.905 0,1.16205 -0.70485,1.905 -0.704849,0.74295 -2.190749,1.42875 l 2.838449,2.9718 q 0.1143,-0.66675 0.1524,-1.31445 0.0381,-0.6477 0.0381,-1.1811 v -0.8382 h 4.17195 v 1.00965 h -0.3048 q -0.6477,0 -1.1811,0.20955 -0.5334,0.20955 -0.78105,1.08585 -0.13335,0.5334 -0.3429,1.143 -0.20955,0.59055 -0.4953,1.20015 l 1.905,1.9812 q 0.2667,0.28575 0.6477,0.381 0.40005,0.09525 0.9144,0.09525 h 0.17145 v 1.00965 h -3.7719 l -1.31445,-1.39065 q -0.704849,0.70485 -1.733549,1.143 -1.0287,0.43815 -2.45745,0.43815 z m 0.74295,-8.8011 q 0.8001,-0.4572 1.08585,-1.00965 0.3048,-0.5715 0.3048,-1.4478 0,-0.66675 -0.2667,-1.12395 -0.2667,-0.4572 -1.0668,-0.4572 -0.6477,0 -0.9525,0.4572 -0.28575,0.4572 -0.28575,1.143 0,0.6477 0.28575,1.2192 0.3048,0.55245 0.89535,1.2192 z m -0.2667,7.52475 q 1.00965,0 1.7145,-0.32385 0.70485,-0.3429 1.16205,-0.89535 l -4.0767,-4.3434 q -0.8001,0.5715 -1.0668,1.2954 -0.24765,0.70485 -0.24765,1.58115 0,1.12395 0.6858,1.905 0.6858,0.78105 1.8288,0.78105 z"
         id="path873" />
    </g>
  </g>
  <g
     inkscape:groupmode="layer"
     id="layer2"
     inkscape:label="Capa 2" />
</svg>
